<svg width="349" height="31" viewBox="0 0 349 31" fill="none" xmlns="http://www.w3.org/2000/svg">
<path d="M19.5881 19.5546H12.0033C11.4283 19.5546 11.0478 19.6395 10.8617 19.8094C10.6757 19.9639 10.3798 20.5122 9.97388 21.4544C9.90623 21.5934 9.70329 22.0336 9.36506 22.775C9.02683 23.5164 8.75625 24.1188 8.55331 24.5822C8.36728 25.0456 8.1728 25.5862 7.96986 26.204C7.78383 26.8064 7.69082 27.2775 7.69082 27.6173C7.69082 28.7603 8.91691 29.3318 11.3691 29.3318C12.1301 29.3318 12.5106 29.5404 12.5106 29.9574C12.5106 30.1428 12.426 30.274 12.2569 30.3513C12.1047 30.4439 11.961 30.4903 11.8257 30.4903C11.7073 30.5057 11.5213 30.5135 11.2676 30.5135C10.9463 30.5135 10.2191 30.4826 9.08602 30.4208C7.95295 30.359 7.22576 30.3281 6.90444 30.3281C6.65076 30.3281 5.77136 30.359 4.26624 30.4208C2.77803 30.4826 1.89017 30.5135 1.60268 30.5135C0.993861 30.5135 0.689453 30.3281 0.689453 29.9574C0.689453 29.5404 1.17143 29.3318 2.13539 29.3318C2.96405 29.3318 3.58132 29.2469 3.9872 29.077C4.40999 28.8916 4.82432 28.49 5.2302 27.8722C5.63607 27.2544 6.12651 26.2349 6.7015 24.8139C7.71619 22.3734 9.25514 18.7128 11.3183 13.8318C13.3985 8.95092 14.9459 5.29023 15.9606 2.84978C16.0451 2.64898 16.1719 2.34778 16.3411 1.94619C16.5102 1.54459 16.637 1.2434 16.7216 1.0426L16.823 0.810912C16.8738 0.656452 16.9076 0.556054 16.9245 0.509716C16.9583 0.463378 17.0091 0.386149 17.0767 0.278027C17.1444 0.169905 17.212 0.100399 17.2797 0.0695067C17.3642 0.0231689 17.4572 0 17.5587 0C17.8631 0 18.1252 0.301196 18.3451 0.903588C19.512 3.54484 21.2623 7.51445 23.5961 12.8124C25.9468 18.1104 27.6971 22.08 28.8471 24.7212C28.9148 24.8602 29.0162 25.0997 29.1515 25.4395C29.3037 25.7793 29.4221 26.0419 29.5067 26.2272C29.5912 26.4126 29.7181 26.6674 29.8872 26.9918C30.0563 27.3007 30.2001 27.5478 30.3184 27.7332C30.4537 27.9185 30.6228 28.1271 30.8258 28.3587C31.0456 28.5904 31.257 28.7681 31.46 28.8916C31.6798 29.0152 31.925 29.1233 32.1956 29.216C32.4831 29.2932 32.7791 29.3318 33.0835 29.3318C34.0982 29.3318 34.6055 29.5713 34.6055 30.0501C34.6055 30.359 34.3434 30.5135 33.8191 30.5135C33.0581 30.5135 31.9166 30.4826 30.3945 30.4208C28.8725 30.359 27.731 30.3281 26.97 30.3281C26.3442 30.3281 25.3803 30.359 24.0781 30.4208C22.7928 30.4826 21.8289 30.5135 21.1862 30.5135C20.645 30.5135 20.3745 30.359 20.3745 30.0501C20.3745 29.5713 20.8733 29.3318 21.8711 29.3318C22.1755 29.3318 22.4123 29.3318 22.5814 29.3318C22.7674 29.3164 23.0127 29.3009 23.3171 29.2855C23.6215 29.2546 23.8667 29.2083 24.0527 29.1465C24.2387 29.0847 24.4248 29.0075 24.6108 28.9148C24.8137 28.8221 24.9575 28.6908 25.042 28.5209C25.1435 28.351 25.1942 28.1502 25.1942 27.9185C25.1942 27.656 25.0843 27.2312 24.8645 26.6442C24.6615 26.0573 24.4417 25.509 24.2049 24.9993C23.9851 24.4741 23.706 23.8717 23.3678 23.1921C23.0465 22.5125 22.8605 22.1109 22.8097 21.9873C22.7252 21.7865 22.6152 21.5471 22.4799 21.2691C22.3616 20.991 22.2855 20.8057 22.2516 20.713C22.2178 20.6049 22.1417 20.4659 22.0233 20.296C21.9219 20.1261 21.8542 20.0179 21.8204 19.9716C21.8035 19.9253 21.7274 19.8635 21.5921 19.7862C21.4568 19.6936 21.3553 19.6472 21.2877 19.6472C21.22 19.6318 21.0763 19.6163 20.8564 19.6009C20.6535 19.57 20.4759 19.5546 20.3237 19.5546C20.1715 19.5546 19.9263 19.5546 19.5881 19.5546ZM12.6374 18.1413H19.3851C19.977 18.1413 20.3745 18.1181 20.5774 18.0717C20.7803 18.0254 20.8818 17.9173 20.8818 17.7474C20.8818 17.6702 20.8226 17.4848 20.7042 17.1913C20.5859 16.8979 20.5267 16.7357 20.5267 16.7048C18.3958 11.8548 17.2205 9.16717 17.0006 8.642C16.6116 7.6998 16.3326 7.2287 16.1635 7.2287C15.9775 7.2287 15.6815 7.6998 15.2756 8.642C14.9712 9.36796 13.779 12.2486 11.6989 17.284C11.5974 17.562 11.5466 17.7474 11.5466 17.8401C11.5466 18.0409 11.9102 18.1413 12.6374 18.1413Z" fill="black"/>
<path d="M45.6606 25.3931V5.97758C45.6606 5.28251 45.6521 4.78824 45.6352 4.49477C45.6352 4.18585 45.5929 3.84604 45.5084 3.47534C45.4407 3.08919 45.3477 2.83433 45.2293 2.71076C45.1109 2.5872 44.9165 2.4559 44.6459 2.31689C44.3753 2.17788 44.054 2.10065 43.6819 2.0852C43.3268 2.05431 42.8533 2.03886 42.2613 2.03886C41.3989 2.03886 40.9676 1.86896 40.9676 1.52915C40.9676 1.01943 41.3819 0.764574 42.2106 0.764574C42.4981 0.764574 43.0308 0.78002 43.8087 0.810912C44.6036 0.841804 45.1448 0.85725 45.4323 0.85725C45.7367 0.85725 46.2778 0.841804 47.0558 0.810912C47.8506 0.78002 48.3833 0.764574 48.6539 0.764574C48.7723 0.764574 48.8907 0.78002 49.009 0.810912C49.1274 0.841804 49.2458 0.895865 49.3642 0.973094C49.4826 1.05032 49.584 1.11983 49.6686 1.18161C49.7532 1.2434 49.8546 1.3438 49.973 1.48281C50.0914 1.60638 50.1759 1.69905 50.2267 1.76084C50.2943 1.82262 50.3873 1.93847 50.5057 2.10837C50.641 2.26283 50.734 2.37095 50.7848 2.43274C53.7104 6.00075 59.2743 12.5807 67.4764 22.1726C67.6625 22.3889 67.9415 22.7287 68.3135 23.1921C68.6856 23.64 68.9731 23.9798 69.176 24.2115V5.97758C69.176 5.39063 69.1676 4.96587 69.1507 4.70329C69.1507 4.44071 69.1337 4.13179 69.0999 3.77653C69.0661 3.40583 68.9985 3.1587 68.897 3.03513C68.8124 2.89611 68.6941 2.74165 68.5418 2.57175C68.3896 2.3864 68.1782 2.27055 67.9077 2.22422C67.654 2.17788 67.358 2.13926 67.0198 2.10837C66.6816 2.06203 66.2588 2.03886 65.7514 2.03886C64.889 2.03886 64.4577 1.86896 64.4577 1.52915C64.4577 1.01943 64.7706 0.764574 65.3963 0.764574C65.9037 0.764574 66.6647 0.795466 67.6794 0.85725C68.694 0.919033 69.4551 0.949925 69.9624 0.949925C70.4867 0.949925 71.2477 0.919033 72.2455 0.85725C73.2433 0.795466 73.9874 0.764574 74.4778 0.764574C74.7315 0.764574 74.9429 0.834081 75.112 0.973094C75.2811 1.09666 75.3656 1.28201 75.3656 1.52915C75.3656 1.86896 74.9175 2.03886 74.0212 2.03886C73.4462 2.03886 72.9727 2.05431 72.6006 2.0852C72.2286 2.11609 71.9072 2.20877 71.6367 2.36323C71.383 2.50224 71.1885 2.63353 71.0532 2.7571C70.9348 2.88067 70.8418 3.13553 70.7742 3.52167C70.7065 3.90782 70.6642 4.24763 70.6473 4.54111C70.6473 4.81913 70.6473 5.29796 70.6473 5.97758V30.0964C70.6473 30.4517 70.622 30.6911 70.5712 30.8147C70.5374 30.9382 70.4359 31 70.2668 31C70.1992 31 70.1231 30.9846 70.0385 30.9537C69.9709 30.9382 69.9032 30.9151 69.8356 30.8842C69.7848 30.8533 69.7257 30.7992 69.658 30.722C69.5904 30.6602 69.5312 30.6061 69.4804 30.5598C69.4466 30.5289 69.3959 30.4671 69.3282 30.3744C69.2606 30.2972 69.2183 30.2432 69.2014 30.2123C69.1845 30.1659 69.1422 30.1041 69.0746 30.0269C69.0069 29.9342 68.9731 29.8802 68.9731 29.8647C68.7025 29.5404 68.2797 29.0306 67.7047 28.3356C67.1297 27.6405 66.7069 27.1308 66.4364 26.8064C64.1195 24.0416 60.8217 20.1338 56.5431 15.083C52.2814 10.0167 49.584 6.81166 48.451 5.46786C48.3664 5.37519 48.2227 5.20528 48.0197 4.95815C47.8168 4.71101 47.6392 4.49477 47.487 4.30942C47.3348 4.12407 47.2249 4.0005 47.1572 3.93872V25.3931C47.1572 25.9646 47.1572 26.3739 47.1572 26.6211C47.1572 26.8528 47.1741 27.154 47.208 27.5247C47.2587 27.8799 47.3094 28.1193 47.3602 28.2429C47.4109 28.3665 47.5039 28.5209 47.6392 28.7063C47.7914 28.8916 47.9436 29.0075 48.0958 29.0538C48.2649 29.0847 48.5017 29.1388 48.8061 29.216C49.1105 29.2778 49.4318 29.3164 49.7701 29.3318C50.1083 29.3318 50.5395 29.3318 51.0638 29.3318C51.5711 29.3318 51.8248 29.4863 51.8248 29.7952C51.8248 30.274 51.5289 30.5135 50.937 30.5135C50.4296 30.5135 49.6686 30.4826 48.6539 30.4208C47.6392 30.359 46.8782 30.3281 46.3708 30.3281C45.8973 30.3281 45.1532 30.359 44.1385 30.4208C43.1238 30.4826 42.3628 30.5135 41.8555 30.5135C41.2297 30.5135 40.9169 30.274 40.9169 29.7952C40.9169 29.579 41.0014 29.4477 41.1706 29.4013C41.3397 29.355 41.7033 29.3318 42.2613 29.3318C42.8533 29.3318 43.3268 29.3241 43.6819 29.3087C44.054 29.2778 44.3753 29.1928 44.6459 29.0538C44.9165 28.8994 45.1109 28.7603 45.2293 28.6368C45.3477 28.5132 45.4407 28.2661 45.5084 27.8954C45.5929 27.5092 45.6352 27.1694 45.6352 26.8759C45.6521 26.567 45.6606 26.0727 45.6606 25.3931Z" fill="black"/>
<path d="M87.2325 25.3931V5.97758C87.2325 5.28251 87.224 4.78824 87.2071 4.49477C87.2071 4.18585 87.1648 3.84604 87.0803 3.47534C87.0126 3.08919 86.9196 2.83433 86.8012 2.71076C86.6828 2.5872 86.4883 2.4559 86.2178 2.31689C85.9472 2.17788 85.6259 2.10065 85.2538 2.0852C84.8987 2.05431 84.4251 2.03886 83.8332 2.03886C82.9708 2.03886 82.5395 1.86896 82.5395 1.52915C82.5395 1.01943 82.9538 0.764574 83.7825 0.764574C84.07 0.764574 84.6027 0.78002 85.3806 0.810912C86.1755 0.841804 86.7167 0.85725 87.0042 0.85725C87.3086 0.85725 87.8497 0.841804 88.6277 0.810912C89.4225 0.78002 89.9552 0.764574 90.2258 0.764574C90.3442 0.764574 90.4626 0.78002 90.5809 0.810912C90.6993 0.841804 90.8177 0.895865 90.9361 0.973094C91.0545 1.05032 91.1559 1.11983 91.2405 1.18161C91.325 1.2434 91.4265 1.3438 91.5449 1.48281C91.6633 1.60638 91.7478 1.69905 91.7986 1.76084C91.8662 1.82262 91.9592 1.93847 92.0776 2.10837C92.2129 2.26283 92.3059 2.37095 92.3567 2.43274C95.2823 6.00075 100.846 12.5807 109.048 22.1726C109.234 22.3889 109.513 22.7287 109.885 23.1921C110.257 23.64 110.545 23.9798 110.748 24.2115V5.97758C110.748 5.39063 110.739 4.96587 110.723 4.70329C110.723 4.44071 110.706 4.13179 110.672 3.77653C110.638 3.40583 110.57 3.1587 110.469 3.03513C110.384 2.89611 110.266 2.74165 110.114 2.57175C109.962 2.3864 109.75 2.27055 109.48 2.22422C109.226 2.17788 108.93 2.13926 108.592 2.10837C108.253 2.06203 107.831 2.03886 107.323 2.03886C106.461 2.03886 106.03 1.86896 106.03 1.52915C106.03 1.01943 106.342 0.764574 106.968 0.764574C107.476 0.764574 108.237 0.795466 109.251 0.85725C110.266 0.919033 111.027 0.949925 111.534 0.949925C112.059 0.949925 112.82 0.919033 113.817 0.85725C114.815 0.795466 115.559 0.764574 116.05 0.764574C116.303 0.764574 116.515 0.834081 116.684 0.973094C116.853 1.09666 116.938 1.28201 116.938 1.52915C116.938 1.86896 116.489 2.03886 115.593 2.03886C115.018 2.03886 114.545 2.05431 114.173 2.0852C113.8 2.11609 113.479 2.20877 113.209 2.36323C112.955 2.50224 112.76 2.63353 112.625 2.7571C112.507 2.88067 112.414 3.13553 112.346 3.52167C112.278 3.90782 112.236 4.24763 112.219 4.54111C112.219 4.81913 112.219 5.29796 112.219 5.97758V30.0964C112.219 30.4517 112.194 30.6911 112.143 30.8147C112.109 30.9382 112.008 31 111.839 31C111.771 31 111.695 30.9846 111.61 30.9537C111.543 30.9382 111.475 30.9151 111.407 30.8842C111.357 30.8533 111.298 30.7992 111.23 30.722C111.162 30.6602 111.103 30.6061 111.052 30.5598C111.019 30.5289 110.968 30.4671 110.9 30.3744C110.832 30.2972 110.79 30.2432 110.773 30.2123C110.756 30.1659 110.714 30.1041 110.646 30.0269C110.579 29.9342 110.545 29.8802 110.545 29.8647C110.274 29.5404 109.852 29.0306 109.277 28.3356C108.702 27.6405 108.279 27.1308 108.008 26.8064C105.691 24.0416 102.394 20.1338 98.115 15.083C93.8533 10.0167 91.1559 6.81166 90.0229 5.46786C89.9383 5.37519 89.7946 5.20528 89.5916 4.95815C89.3887 4.71101 89.2111 4.49477 89.0589 4.30942C88.9067 4.12407 88.7968 4.0005 88.7291 3.93872V25.3931C88.7291 25.9646 88.7291 26.3739 88.7291 26.6211C88.7291 26.8528 88.746 27.154 88.7799 27.5247C88.8306 27.8799 88.8813 28.1193 88.9321 28.2429C88.9828 28.3665 89.0758 28.5209 89.2111 28.7063C89.3633 28.8916 89.5155 29.0075 89.6677 29.0538C89.8368 29.0847 90.0736 29.1388 90.378 29.216C90.6824 29.2778 91.0037 29.3164 91.342 29.3318C91.6802 29.3318 92.1114 29.3318 92.6357 29.3318C93.143 29.3318 93.3967 29.4863 93.3967 29.7952C93.3967 30.274 93.1008 30.5135 92.5089 30.5135C92.0015 30.5135 91.2405 30.4826 90.2258 30.4208C89.2111 30.359 88.4501 30.3281 87.9427 30.3281C87.4692 30.3281 86.7251 30.359 85.7104 30.4208C84.6957 30.4826 83.9347 30.5135 83.4274 30.5135C82.8016 30.5135 82.4888 30.274 82.4888 29.7952C82.4888 29.579 82.5733 29.4477 82.7424 29.4013C82.9116 29.355 83.2752 29.3318 83.8332 29.3318C84.4251 29.3318 84.8987 29.3241 85.2538 29.3087C85.6259 29.2778 85.9472 29.1928 86.2178 29.0538C86.4883 28.8994 86.6828 28.7603 86.8012 28.6368C86.9196 28.5132 87.0126 28.2661 87.0803 27.8954C87.1648 27.5092 87.2071 27.1694 87.2071 26.8759C87.224 26.567 87.2325 26.0727 87.2325 25.3931Z" fill="black"/>
<path d="M128.804 25.2541V5.93124C128.804 5.26707 128.796 4.78824 128.779 4.49477C128.779 4.2013 128.737 3.86921 128.652 3.49851C128.585 3.11236 128.491 2.8575 128.373 2.73393C128.255 2.61036 128.06 2.47907 127.79 2.34006C127.519 2.20105 127.198 2.11609 126.826 2.0852C126.471 2.05431 125.997 2.03886 125.405 2.03886C124.509 2.03886 124.061 1.85351 124.061 1.48281C124.061 1.26657 124.145 1.09666 124.314 0.973094C124.5 0.834081 124.712 0.764574 124.949 0.764574C126.014 0.764574 127.637 0.795466 129.819 0.85725C132.018 0.919033 133.65 0.949925 134.715 0.949925C136.203 0.949925 138.41 0.919033 141.336 0.85725C144.278 0.795466 146.485 0.764574 147.957 0.764574C148.312 0.764574 148.523 0.864973 148.591 1.06577C148.658 1.26657 148.692 1.75311 148.692 2.52541V6.60314C148.692 7.26731 148.54 7.5994 148.236 7.5994C147.965 7.5994 147.686 7.34455 147.399 6.83483C147.314 6.68037 147.179 6.43323 146.993 6.09342C146.824 5.73817 146.697 5.48331 146.612 5.32885C146.139 4.40209 145.614 3.72247 145.039 3.28999C144.464 2.8575 143.619 2.54086 142.503 2.34006C141.403 2.13926 139.797 2.03886 137.683 2.03886C135.298 2.03886 133.878 2.1856 133.421 2.47907C133.184 2.64898 133.032 2.88067 132.965 3.17414C132.914 3.46761 132.888 3.91555 132.888 4.51794V11.3991C132.888 11.847 132.888 12.1637 132.888 12.349C132.888 12.5344 132.948 12.7352 133.066 12.9514C133.201 13.1677 133.311 13.3067 133.396 13.3685C133.497 13.4148 133.751 13.4689 134.157 13.5306C134.58 13.5924 134.952 13.6233 135.273 13.6233C135.611 13.6233 136.203 13.6233 137.049 13.6233C138.114 13.6233 138.867 13.6233 139.306 13.6233C139.763 13.6079 140.279 13.577 140.854 13.5306C141.446 13.4843 141.826 13.4225 141.995 13.3453C142.181 13.2681 142.393 13.1368 142.63 12.9514C142.866 12.7661 143.018 12.5575 143.086 12.3259C143.171 12.0787 143.255 11.7544 143.34 11.3528C143.357 11.2755 143.382 11.1134 143.416 10.8662C143.467 10.6191 143.5 10.4337 143.517 10.3102C143.551 10.1866 143.602 10.0399 143.67 9.86996C143.737 9.6846 143.822 9.55331 143.923 9.47608C144.025 9.39885 144.143 9.36024 144.278 9.36024C144.65 9.36024 144.836 9.5147 144.836 9.82362C144.836 10.2715 144.803 10.9512 144.735 11.8625C144.667 12.7738 144.634 13.4534 144.634 13.9013C144.634 14.4111 144.667 15.1602 144.735 16.1487C144.803 17.1218 144.836 17.8632 144.836 18.3729C144.836 18.9444 144.65 19.2302 144.278 19.2302C144.042 19.2302 143.864 19.1221 143.746 18.9058C143.627 18.6896 143.517 18.3343 143.416 17.8401C143.331 17.3458 143.272 17.0446 143.238 16.9365C143.103 16.4885 142.909 16.141 142.655 15.8939C142.418 15.6313 141.978 15.4305 141.336 15.2915C140.71 15.137 139.974 15.0443 139.129 15.0135C138.283 14.9671 137.074 14.9439 135.501 14.9439C134.368 14.9439 133.65 15.0212 133.345 15.1756C133.041 15.3301 132.888 15.7935 132.888 16.5658V24.8139C132.888 25.4317 132.939 25.9723 133.041 26.4357C133.142 26.8991 133.269 27.293 133.421 27.6173C133.573 27.9263 133.81 28.1888 134.131 28.4051C134.453 28.6059 134.749 28.7603 135.019 28.8685C135.29 28.9766 135.696 29.0615 136.237 29.1233C136.778 29.1851 137.235 29.2237 137.607 29.2392C137.996 29.2392 138.554 29.2392 139.281 29.2392C140.177 29.2392 140.879 29.2314 141.387 29.216C141.911 29.1851 142.503 29.131 143.162 29.0538C143.839 28.9766 144.388 28.8453 144.811 28.6599C145.234 28.4746 145.674 28.2275 146.13 27.9185C146.604 27.6096 147.018 27.2157 147.373 26.7369C147.728 26.2427 148.067 25.6557 148.388 24.9761C148.439 24.8525 148.506 24.6826 148.591 24.4664C148.692 24.2501 148.76 24.0957 148.794 24.003C148.845 23.9103 148.904 23.8022 148.971 23.6786C149.056 23.5551 149.14 23.4701 149.225 23.4238C149.31 23.3774 149.411 23.3543 149.529 23.3543C149.868 23.3543 150.037 23.5242 150.037 23.864C150.037 24.003 150.003 24.2115 149.935 24.4895C149.885 24.7676 149.851 24.9452 149.834 25.0224C149.766 25.5321 149.639 26.289 149.453 27.293C149.284 28.297 149.166 29.0538 149.098 29.5635C149.047 29.9188 148.98 30.135 148.895 30.2123C148.828 30.2895 148.675 30.3281 148.439 30.3281H131.29C130.073 30.3281 128.838 30.359 127.587 30.4208C126.268 30.4826 125.388 30.5135 124.949 30.5135C124.357 30.5135 124.061 30.274 124.061 29.7952C124.061 29.4245 124.509 29.2392 125.405 29.2392C125.845 29.2392 126.217 29.2314 126.521 29.216C126.826 29.2006 127.105 29.1542 127.358 29.077C127.612 28.9998 127.815 28.9302 127.967 28.8685C128.119 28.8067 128.255 28.6831 128.373 28.4978C128.491 28.297 128.576 28.1348 128.627 28.0112C128.678 27.8722 128.72 27.6328 128.754 27.293C128.787 26.9377 128.804 26.6442 128.804 26.4126C128.804 26.1654 128.804 25.7793 128.804 25.2541Z" fill="black"/>
<path d="M206.19 29.9574V29.9111C206.19 29.6485 206.308 29.4863 206.545 29.4245C206.799 29.3627 207.221 29.3318 207.813 29.3318C208.439 29.3318 208.963 29.2623 209.386 29.1233C209.809 28.9689 210.122 28.799 210.325 28.6136C210.544 28.4283 210.705 28.1348 210.807 27.7332C210.925 27.3161 210.993 26.9686 211.01 26.6906C211.026 26.4126 211.035 25.9801 211.035 25.3931V4.56428C211.035 4.02367 210.984 3.75336 210.883 3.75336C210.849 3.75336 210.807 3.77653 210.756 3.82287C210.722 3.85376 210.68 3.91555 210.629 4.00822C210.578 4.08545 210.536 4.1704 210.502 4.26308C210.468 4.35576 210.409 4.47932 210.325 4.63378C210.257 4.78824 210.198 4.91953 210.147 5.02765C208.913 7.63802 207.078 11.5613 204.642 16.7975C202.207 22.0336 200.372 25.9569 199.138 28.5673C199.121 28.5827 199.095 28.629 199.062 28.7063C199.028 28.7835 199.002 28.8453 198.985 28.8916C198.969 28.9225 198.943 28.9766 198.909 29.0538C198.876 29.1156 198.842 29.1619 198.808 29.1928C198.774 29.2237 198.732 29.2623 198.681 29.3087C198.63 29.355 198.58 29.3859 198.529 29.4013C198.478 29.4168 198.419 29.4245 198.351 29.4245C198.013 29.4245 197.751 29.1233 197.565 28.5209C193.625 19.2225 190.335 11.4918 187.697 5.32885C187.663 5.25162 187.621 5.15894 187.57 5.05082C187.536 4.9427 187.503 4.85003 187.469 4.7728C187.435 4.69557 187.401 4.62606 187.367 4.56428C187.333 4.48705 187.3 4.43299 187.266 4.40209C187.249 4.35576 187.224 4.33259 187.19 4.33259C187.021 4.33259 186.911 4.75735 186.86 5.60688C186.758 7.19781 186.488 10.5496 186.048 15.6622C185.625 20.7748 185.414 24.1111 185.414 25.6712C185.414 27.0613 185.693 28.0189 186.251 28.5441C186.809 29.0693 187.756 29.3318 189.092 29.3318C190.039 29.3318 190.513 29.5404 190.513 29.9574C190.513 30.1273 190.437 30.2586 190.284 30.3513C190.149 30.4439 190.022 30.4903 189.904 30.4903C189.786 30.5057 189.608 30.5135 189.371 30.5135C188.864 30.5135 188.086 30.4826 187.037 30.4208C185.989 30.359 185.203 30.3281 184.678 30.3281C184.154 30.3281 183.376 30.359 182.345 30.4208C181.313 30.4826 180.552 30.5135 180.061 30.5135C179.503 30.5135 179.224 30.3281 179.224 29.9574C179.224 29.5404 179.681 29.3318 180.594 29.3318C181 29.3318 181.355 29.3087 181.66 29.2623C181.981 29.2006 182.252 29.131 182.471 29.0538C182.691 28.9611 182.877 28.8298 183.029 28.6599C183.182 28.4746 183.3 28.3047 183.385 28.1502C183.486 27.9958 183.562 27.7718 183.613 27.4783C183.681 27.1849 183.723 26.93 183.74 26.7138C183.757 26.4821 183.782 26.1654 183.816 25.7638C183.985 23.1689 184.281 19.2379 184.704 13.9709C185.126 8.68834 185.363 5.6146 185.414 4.74963C185.431 4.39437 185.439 4.10862 185.439 3.89238C185.456 3.66069 185.448 3.43672 185.414 3.22048C185.38 3.00424 185.346 2.84205 185.313 2.73393C185.296 2.62581 185.22 2.52541 185.084 2.43274C184.966 2.32461 184.847 2.25511 184.729 2.22422C184.628 2.17788 184.45 2.13926 184.196 2.10837C183.96 2.06203 183.731 2.03886 183.511 2.03886C183.308 2.03886 183.004 2.03886 182.598 2.03886C181.77 2.03886 181.355 1.79173 181.355 1.29746C181.355 1.05032 181.457 0.903588 181.66 0.85725C181.863 0.795466 182.268 0.764574 182.877 0.764574C183.182 0.764574 183.723 0.78002 184.501 0.810912C185.279 0.841804 185.811 0.85725 186.099 0.85725C186.353 0.85725 186.851 0.841804 187.596 0.810912C188.34 0.78002 188.839 0.764574 189.092 0.764574C189.278 0.764574 189.447 0.841804 189.6 0.996263C189.752 1.13528 189.862 1.28201 189.929 1.43647C190.014 1.59093 190.124 1.82262 190.259 2.13154C193.675 9.91629 196.356 16.0561 198.301 20.5508C198.368 20.7053 198.461 20.9447 198.58 21.2691C198.715 21.5934 198.825 21.8715 198.909 22.1031C199.011 22.3194 199.112 22.5511 199.214 22.7982C199.332 23.0299 199.425 23.2152 199.493 23.3543C199.577 23.4778 199.645 23.5396 199.696 23.5396C199.763 23.5396 199.873 23.4006 200.026 23.1226C200.178 22.8445 200.381 22.4198 200.634 21.8483C200.905 21.2613 201.116 20.8134 201.269 20.5045C202.317 18.3729 203.831 15.1911 205.809 10.9589C207.805 6.71126 209.335 3.52167 210.401 1.39013C210.604 0.973094 211.069 0.764574 211.796 0.764574C212.067 0.764574 212.54 0.78002 213.217 0.810912C213.893 0.841804 214.375 0.85725 214.662 0.85725C214.848 0.85725 215.28 0.841804 215.956 0.810912C216.633 0.78002 217.174 0.764574 217.58 0.764574C217.884 0.764574 218.095 0.772297 218.214 0.787743C218.349 0.787743 218.493 0.803189 218.645 0.834081C218.814 0.864973 218.924 0.919033 218.975 0.996263C219.043 1.07349 219.076 1.17389 219.076 1.29746C219.076 1.54459 218.992 1.72222 218.823 1.83034C218.67 1.93847 218.484 2.00025 218.265 2.0157C218.045 2.03114 217.664 2.03886 217.123 2.03886C217.072 2.03886 217.03 2.03886 216.996 2.03886C216.1 2.03886 215.567 2.23966 215.398 2.64126C215.229 3.0274 215.144 4.07773 215.144 5.79223V25.3931C215.144 26.1345 215.17 26.7292 215.221 27.1771C215.271 27.6096 215.347 27.9803 215.449 28.2892C215.567 28.5982 215.745 28.8221 215.982 28.9611C216.235 29.1002 216.514 29.2006 216.819 29.2623C217.123 29.3087 217.546 29.3318 218.087 29.3318C218.916 29.3318 219.33 29.5404 219.33 29.9574C219.33 30.3281 219 30.5135 218.341 30.5135C217.783 30.5135 216.954 30.4826 215.855 30.4208C214.755 30.359 213.927 30.3281 213.369 30.3281C212.675 30.3281 211.635 30.359 210.249 30.4208C208.879 30.4826 207.856 30.5135 207.179 30.5135C206.52 30.5135 206.19 30.3281 206.19 29.9574Z" fill="black"/>
<path d="M244.007 19.5546H236.423C235.848 19.5546 235.467 19.6395 235.281 19.8094C235.095 19.9639 234.799 20.5122 234.393 21.4544C234.325 21.5934 234.123 22.0336 233.784 22.775C233.446 23.5164 233.175 24.1188 232.973 24.5822C232.787 25.0456 232.592 25.5862 232.389 26.204C232.203 26.8064 232.11 27.2775 232.11 27.6173C232.11 28.7603 233.336 29.3318 235.788 29.3318C236.549 29.3318 236.93 29.5404 236.93 29.9574C236.93 30.1428 236.845 30.274 236.676 30.3513C236.524 30.4439 236.38 30.4903 236.245 30.4903C236.127 30.5057 235.941 30.5135 235.687 30.5135C235.366 30.5135 234.638 30.4826 233.505 30.4208C232.372 30.359 231.645 30.3281 231.324 30.3281C231.07 30.3281 230.191 30.359 228.685 30.4208C227.197 30.4826 226.309 30.5135 226.022 30.5135C225.413 30.5135 225.109 30.3281 225.109 29.9574C225.109 29.5404 225.591 29.3318 226.555 29.3318C227.383 29.3318 228.001 29.2469 228.406 29.077C228.829 28.8916 229.244 28.49 229.649 27.8722C230.055 27.2544 230.546 26.2349 231.121 24.8139C232.135 22.3734 233.674 18.7128 235.738 13.8318C237.818 8.95092 239.365 5.29023 240.38 2.84978C240.464 2.64898 240.591 2.34778 240.76 1.94619C240.929 1.54459 241.056 1.2434 241.141 1.0426L241.242 0.810912C241.293 0.656452 241.327 0.556054 241.344 0.509716C241.378 0.463378 241.428 0.386149 241.496 0.278027C241.564 0.169905 241.631 0.100399 241.699 0.0695067C241.783 0.0231689 241.876 0 241.978 0C242.282 0 242.544 0.301196 242.764 0.903588C243.931 3.54484 245.682 7.51445 248.015 12.8124C250.366 18.1104 252.116 22.08 253.266 24.7212C253.334 24.8602 253.435 25.0997 253.571 25.4395C253.723 25.7793 253.841 26.0419 253.926 26.2272C254.01 26.4126 254.137 26.6674 254.306 26.9918C254.476 27.3007 254.619 27.5478 254.738 27.7332C254.873 27.9185 255.042 28.1271 255.245 28.3587C255.465 28.5904 255.676 28.7681 255.879 28.8916C256.099 29.0152 256.344 29.1233 256.615 29.216C256.902 29.2932 257.198 29.3318 257.503 29.3318C258.517 29.3318 259.025 29.5713 259.025 30.0501C259.025 30.359 258.763 30.5135 258.238 30.5135C257.477 30.5135 256.336 30.4826 254.814 30.4208C253.292 30.359 252.15 30.3281 251.389 30.3281C250.763 30.3281 249.8 30.359 248.497 30.4208C247.212 30.4826 246.248 30.5135 245.605 30.5135C245.064 30.5135 244.794 30.359 244.794 30.0501C244.794 29.5713 245.293 29.3318 246.29 29.3318C246.595 29.3318 246.832 29.3318 247.001 29.3318C247.187 29.3164 247.432 29.3009 247.736 29.2855C248.041 29.2546 248.286 29.2083 248.472 29.1465C248.658 29.0847 248.844 29.0075 249.03 28.9148C249.233 28.8221 249.377 28.6908 249.461 28.5209C249.563 28.351 249.613 28.1502 249.613 27.9185C249.613 27.656 249.504 27.2312 249.284 26.6442C249.081 26.0573 248.861 25.509 248.624 24.9993C248.404 24.4741 248.125 23.8717 247.787 23.1921C247.466 22.5125 247.28 22.1109 247.229 21.9873C247.144 21.7865 247.034 21.5471 246.899 21.2691C246.781 20.991 246.705 20.8057 246.671 20.713C246.637 20.6049 246.561 20.4659 246.443 20.296C246.341 20.1261 246.273 20.0179 246.24 19.9716C246.223 19.9253 246.147 19.8635 246.011 19.7862C245.876 19.6936 245.775 19.6472 245.707 19.6472C245.639 19.6318 245.496 19.6163 245.276 19.6009C245.073 19.57 244.895 19.5546 244.743 19.5546C244.591 19.5546 244.346 19.5546 244.007 19.5546ZM237.057 18.1413H243.804C244.396 18.1413 244.794 18.1181 244.997 18.0717C245.2 18.0254 245.301 17.9173 245.301 17.7474C245.301 17.6702 245.242 17.4848 245.123 17.1913C245.005 16.8979 244.946 16.7357 244.946 16.7048C242.815 11.8548 241.64 9.16717 241.42 8.642C241.031 7.6998 240.752 7.2287 240.583 7.2287C240.397 7.2287 240.101 7.6998 239.695 8.642C239.39 9.36796 238.198 12.2486 236.118 17.284C236.017 17.562 235.966 17.7474 235.966 17.8401C235.966 18.0409 236.329 18.1413 237.057 18.1413Z" fill="black"/>
<path d="M274.164 18.0949V25.3931C274.164 25.9183 274.164 26.3044 274.164 26.5516C274.164 26.7833 274.181 27.069 274.215 27.4088C274.248 27.7486 274.291 27.988 274.342 28.1271C274.409 28.2661 274.502 28.4283 274.621 28.6136C274.739 28.799 274.883 28.9225 275.052 28.9843C275.221 29.0461 275.432 29.1156 275.686 29.1928C275.957 29.2546 276.253 29.2932 276.574 29.3087C276.895 29.3241 277.293 29.3318 277.766 29.3318C278.527 29.3318 278.908 29.5249 278.908 29.9111C278.908 30.3127 278.612 30.5135 278.02 30.5135C277.36 30.5135 276.388 30.4826 275.103 30.4208C273.834 30.359 272.87 30.3281 272.211 30.3281C271.551 30.3281 270.562 30.359 269.243 30.4208C267.924 30.4826 266.934 30.5135 266.275 30.5135C265.683 30.5135 265.387 30.3127 265.387 29.9111C265.387 29.6485 265.497 29.4863 265.717 29.4245C265.937 29.3627 266.258 29.3318 266.681 29.3318C267.272 29.3318 267.746 29.3241 268.101 29.3087C268.473 29.2778 268.795 29.1928 269.065 29.0538C269.336 28.9148 269.53 28.7835 269.649 28.6599C269.767 28.5364 269.86 28.2892 269.928 27.9185C270.012 27.5324 270.054 27.1926 270.054 26.8991C270.071 26.5902 270.08 26.0882 270.08 25.3931V5.97758C270.08 5.26707 270.071 4.76507 270.054 4.4716C270.054 4.16268 270.012 3.81515 269.928 3.429C269.86 3.04285 269.767 2.79572 269.649 2.68759C269.53 2.56403 269.327 2.44046 269.04 2.31689C268.769 2.17788 268.456 2.10065 268.101 2.0852C267.746 2.05431 267.272 2.03886 266.681 2.03886C265.818 2.03886 265.387 1.85351 265.387 1.48281C265.387 1.00399 265.7 0.764574 266.325 0.764574C266.884 0.764574 267.729 0.795466 268.862 0.85725C270.012 0.919033 270.866 0.949925 271.424 0.949925C272.439 0.949925 273.927 0.919033 275.889 0.85725C277.851 0.795466 279.322 0.764574 280.303 0.764574C281.571 0.764574 282.78 0.911311 283.93 1.20478C285.08 1.49826 286.12 1.93074 287.051 2.50224C287.998 3.0583 288.742 3.80742 289.283 4.74963C289.841 5.69183 290.12 6.76532 290.12 7.9701C290.12 9.57648 289.613 10.9589 288.598 12.1173C287.6 13.2758 286.273 14.1408 284.615 14.7123C283.584 15.0521 282.687 15.2606 281.926 15.3378C282.197 15.3687 282.451 15.4537 282.687 15.5927C282.941 15.7162 283.144 15.8398 283.296 15.9634C283.465 16.0869 283.651 16.2877 283.854 16.5658C284.057 16.8284 284.201 17.0214 284.285 17.145C284.37 17.2686 284.514 17.5003 284.717 17.8401C284.92 18.1799 285.038 18.3884 285.072 18.4656C285.545 19.2843 286.247 20.5199 287.177 22.1726C288.108 23.8099 288.809 25.0379 289.283 25.8565C289.317 25.9183 289.418 26.1036 289.587 26.4126C289.756 26.706 289.866 26.8991 289.917 26.9918C289.968 27.069 290.069 27.2389 290.221 27.5015C290.374 27.7486 290.492 27.9185 290.577 28.0112C290.678 28.0884 290.813 28.2275 290.982 28.4283C291.152 28.6136 291.304 28.7449 291.439 28.8221C291.591 28.8839 291.76 28.9689 291.946 29.077C292.149 29.1697 292.361 29.2392 292.581 29.2855C292.8 29.3164 293.037 29.3318 293.291 29.3318C294.187 29.3318 294.635 29.5558 294.635 30.0037C294.635 30.3435 294.322 30.5135 293.697 30.5135C293.477 30.5135 293.029 30.498 292.352 30.4671C291.676 30.4362 291.211 30.4208 290.957 30.4208C290.703 30.4208 290.238 30.4362 289.562 30.4671C288.885 30.498 288.429 30.5135 288.192 30.5135C288.023 30.5135 287.862 30.4826 287.71 30.4208C287.575 30.3744 287.456 30.3281 287.355 30.2818C287.27 30.22 287.177 30.1196 287.076 29.9806C286.974 29.8416 286.898 29.7334 286.848 29.6562C286.797 29.579 286.721 29.4554 286.619 29.2855C286.535 29.1002 286.476 28.9766 286.442 28.9148C285.867 27.8954 285.013 26.3508 283.88 24.281C282.763 22.2113 281.918 20.6667 281.343 19.6472C280.92 18.9058 280.624 18.3884 280.455 18.0949C280.303 17.8014 280.066 17.4694 279.745 17.0987C279.44 16.728 279.204 16.504 279.034 16.4268C278.882 16.3341 278.586 16.2337 278.147 16.1256C277.724 16.002 277.326 15.9402 276.954 15.9402C276.599 15.9402 276.033 15.9402 275.255 15.9402C274.764 15.9402 274.46 16.0715 274.342 16.3341C274.223 16.5967 274.164 17.1836 274.164 18.0949ZM274.164 5.56054V14.0635C274.164 14.6505 274.654 14.9439 275.635 14.9439C276.261 14.9439 276.76 14.9439 277.132 14.9439C277.521 14.9285 278.113 14.8822 278.908 14.8049C279.702 14.7123 280.354 14.5964 280.861 14.4574C281.385 14.3029 281.977 14.0713 282.637 13.7623C283.313 13.438 283.846 13.0595 284.235 12.6271C284.641 12.1791 284.987 11.6076 285.275 10.9126C285.562 10.202 285.706 9.39885 285.706 8.50299C285.706 6.356 285.038 4.69557 283.702 3.52167C282.383 2.34778 280.556 1.76084 278.223 1.76084C277.529 1.76084 276.971 1.77628 276.548 1.80718C276.126 1.82262 275.745 1.89985 275.407 2.03886C275.086 2.16243 274.849 2.286 274.697 2.40957C274.544 2.53313 274.426 2.77255 274.342 3.1278C274.257 3.46761 274.206 3.7997 274.189 4.12407C274.172 4.43298 274.164 4.91181 274.164 5.56054Z" fill="black"/>
<path d="M309.496 5.93124V25.3931C309.496 25.9183 309.496 26.3044 309.496 26.5516C309.496 26.7833 309.512 27.069 309.546 27.4088C309.58 27.7486 309.622 27.988 309.673 28.1271C309.741 28.2661 309.834 28.4283 309.952 28.6136C310.07 28.799 310.214 28.9225 310.383 28.9843C310.552 29.0461 310.764 29.1156 311.018 29.1928C311.288 29.2546 311.584 29.2932 311.905 29.3087C312.227 29.3241 312.624 29.3318 313.098 29.3318C313.859 29.3318 314.239 29.5249 314.239 29.9111C314.239 30.3127 313.943 30.5135 313.351 30.5135C312.692 30.5135 311.719 30.4826 310.434 30.4208C309.166 30.359 308.202 30.3281 307.542 30.3281C306.883 30.3281 305.893 30.359 304.574 30.4208C303.255 30.4826 302.266 30.5135 301.606 30.5135C301.014 30.5135 300.718 30.3127 300.718 29.9111C300.718 29.6485 300.828 29.4863 301.048 29.4245C301.268 29.3627 301.589 29.3318 302.012 29.3318C302.604 29.3318 303.078 29.3241 303.433 29.3087C303.805 29.2778 304.126 29.1928 304.397 29.0538C304.667 28.9148 304.862 28.7835 304.98 28.6599C305.098 28.5364 305.191 28.2892 305.259 27.9185C305.344 27.5324 305.386 27.1926 305.386 26.8991C305.403 26.5902 305.411 26.0882 305.411 25.3931V5.93124C305.411 5.40608 305.411 5.01993 305.411 4.7728C305.411 4.52566 305.394 4.23219 305.361 3.89238C305.327 3.55257 305.285 3.32088 305.234 3.19731C305.183 3.0583 305.098 2.89611 304.98 2.71076C304.862 2.52541 304.726 2.40957 304.574 2.36323C304.422 2.31689 304.219 2.25511 303.965 2.17788C303.712 2.10065 303.433 2.06203 303.128 2.06203C302.824 2.04659 302.452 2.03886 302.012 2.03886C301.15 2.03886 300.718 1.83807 300.718 1.43647C300.718 0.98854 301.014 0.764574 301.606 0.764574C302.266 0.764574 303.23 0.795466 304.498 0.85725C305.783 0.919033 306.756 0.949925 307.415 0.949925C308.075 0.949925 309.064 0.919033 310.383 0.85725C311.702 0.795466 312.692 0.764574 313.351 0.764574C313.943 0.764574 314.239 0.98854 314.239 1.43647C314.239 1.83807 313.783 2.03886 312.869 2.03886C312.43 2.03886 312.058 2.04659 311.753 2.06203C311.449 2.06203 311.17 2.10065 310.916 2.17788C310.662 2.25511 310.459 2.31689 310.307 2.36323C310.172 2.40957 310.045 2.53313 309.927 2.73393C309.808 2.91928 309.724 3.07374 309.673 3.19731C309.622 3.32088 309.58 3.56029 309.546 3.91555C309.512 4.25536 309.496 4.54111 309.496 4.7728C309.496 5.00449 309.496 5.39063 309.496 5.93124Z" fill="black"/>
<path d="M327.247 25.2541V5.93124C327.247 5.26707 327.239 4.78824 327.222 4.49477C327.222 4.2013 327.18 3.86921 327.095 3.49851C327.028 3.11236 326.935 2.8575 326.816 2.73393C326.698 2.61036 326.503 2.47907 326.233 2.34006C325.962 2.20105 325.641 2.11609 325.269 2.0852C324.914 2.05431 324.44 2.03886 323.848 2.03886C322.952 2.03886 322.504 1.85351 322.504 1.48281C322.504 1.26657 322.588 1.09666 322.757 0.973094C322.944 0.834081 323.155 0.764574 323.392 0.764574C324.457 0.764574 326.081 0.795466 328.262 0.85725C330.461 0.919033 332.093 0.949925 333.158 0.949925C334.646 0.949925 336.853 0.919033 339.779 0.85725C342.722 0.795466 344.928 0.764574 346.4 0.764574C346.755 0.764574 346.966 0.864973 347.034 1.06577C347.102 1.26657 347.135 1.75311 347.135 2.52541V6.60314C347.135 7.26731 346.983 7.5994 346.679 7.5994C346.408 7.5994 346.129 7.34455 345.842 6.83483C345.757 6.68037 345.622 6.43323 345.436 6.09342C345.267 5.73817 345.14 5.48331 345.055 5.32885C344.582 4.40209 344.058 3.72247 343.483 3.28999C342.908 2.8575 342.062 2.54086 340.946 2.34006C339.847 2.13926 338.24 2.03886 336.126 2.03886C333.742 2.03886 332.321 2.1856 331.864 2.47907C331.628 2.64898 331.475 2.88067 331.408 3.17414C331.357 3.46761 331.332 3.91555 331.332 4.51794V11.3991C331.332 11.847 331.332 12.1637 331.332 12.349C331.332 12.5344 331.391 12.7352 331.509 12.9514C331.644 13.1677 331.754 13.3067 331.839 13.3685C331.94 13.4148 332.194 13.4689 332.6 13.5306C333.023 13.5924 333.395 13.6233 333.716 13.6233C334.054 13.6233 334.646 13.6233 335.492 13.6233C336.557 13.6233 337.31 13.6233 337.75 13.6233C338.206 13.6079 338.722 13.577 339.297 13.5306C339.889 13.4843 340.269 13.4225 340.438 13.3453C340.625 13.2681 340.836 13.1368 341.073 12.9514C341.309 12.7661 341.462 12.5575 341.529 12.3259C341.614 12.0787 341.698 11.7544 341.783 11.3528C341.8 11.2755 341.825 11.1134 341.859 10.8662C341.91 10.6191 341.944 10.4337 341.961 10.3102C341.994 10.1866 342.045 10.0399 342.113 9.86996C342.18 9.6846 342.265 9.55331 342.366 9.47608C342.468 9.39885 342.586 9.36024 342.722 9.36024C343.094 9.36024 343.28 9.5147 343.28 9.82362C343.28 10.2715 343.246 10.9512 343.178 11.8625C343.111 12.7738 343.077 13.4534 343.077 13.9013C343.077 14.4111 343.111 15.1602 343.178 16.1487C343.246 17.1218 343.28 17.8632 343.28 18.3729C343.28 18.9444 343.094 19.2302 342.722 19.2302C342.485 19.2302 342.307 19.1221 342.189 18.9058C342.07 18.6896 341.961 18.3343 341.859 17.8401C341.774 17.3458 341.715 17.0446 341.681 16.9365C341.546 16.4885 341.352 16.141 341.098 15.8939C340.861 15.6313 340.422 15.4305 339.779 15.2915C339.153 15.137 338.418 15.0443 337.572 15.0135C336.726 14.9671 335.517 14.9439 333.944 14.9439C332.811 14.9439 332.093 15.0212 331.788 15.1756C331.484 15.3301 331.332 15.7935 331.332 16.5658V24.8139C331.332 25.4317 331.382 25.9723 331.484 26.4357C331.585 26.8991 331.712 27.293 331.864 27.6173C332.017 27.9263 332.253 28.1888 332.575 28.4051C332.896 28.6059 333.192 28.7603 333.462 28.8685C333.733 28.9766 334.139 29.0615 334.68 29.1233C335.221 29.1851 335.678 29.2237 336.05 29.2392C336.439 29.2392 336.997 29.2392 337.724 29.2392C338.621 29.2392 339.322 29.2314 339.83 29.216C340.354 29.1851 340.946 29.131 341.605 29.0538C342.282 28.9766 342.831 28.8453 343.254 28.6599C343.677 28.4746 344.117 28.2275 344.573 27.9185C345.047 27.6096 345.461 27.2157 345.816 26.7369C346.171 26.2427 346.51 25.6557 346.831 24.9761C346.882 24.8525 346.949 24.6826 347.034 24.4664C347.135 24.2501 347.203 24.0957 347.237 24.003C347.288 23.9103 347.347 23.8022 347.414 23.6786C347.499 23.5551 347.584 23.4701 347.668 23.4238C347.753 23.3774 347.854 23.3543 347.973 23.3543C348.311 23.3543 348.48 23.5242 348.48 23.864C348.48 24.003 348.446 24.2115 348.378 24.4895C348.328 24.7676 348.294 24.9452 348.277 25.0224C348.209 25.5321 348.083 26.289 347.896 27.293C347.727 28.297 347.609 29.0538 347.541 29.5635C347.491 29.9188 347.423 30.135 347.338 30.2123C347.271 30.2895 347.119 30.3281 346.882 30.3281H329.733C328.516 30.3281 327.281 30.359 326.03 30.4208C324.711 30.4826 323.831 30.5135 323.392 30.5135C322.8 30.5135 322.504 30.274 322.504 29.7952C322.504 29.4245 322.952 29.2392 323.848 29.2392C324.288 29.2392 324.66 29.2314 324.964 29.216C325.269 29.2006 325.548 29.1542 325.802 29.077C326.055 28.9998 326.258 28.9302 326.41 28.8685C326.563 28.8067 326.698 28.6831 326.816 28.4978C326.935 28.297 327.019 28.1348 327.07 28.0112C327.121 27.8722 327.163 27.6328 327.197 27.293C327.231 26.9377 327.247 26.6442 327.247 26.4126C327.247 26.1654 327.247 25.7793 327.247 25.2541Z" fill="black"/>
</svg>
