<svg width="526" height="81" viewBox="0 0 526 81" fill="none" xmlns="http://www.w3.org/2000/svg">
<path fill-rule="evenodd" clip-rule="evenodd" d="M157.939 2.75C162.659 8.837 175.803 18.972 186.223 24.558L191.995 27.651L181.003 27.198C174.958 26.949 165.714 27.286 160.462 27.948L150.913 29.15L145.824 24.574C135.19 15.013 121.129 10.737 101.906 11.216L90.4855 11.5L99.3095 17.212C110.359 24.366 121.001 28.512 132.404 30.107L141.262 31.346L136.357 32.736C133.66 33.5 121.396 37.247 109.104 41.063C96.8115 44.878 86.3585 48 85.8745 48C85.3895 48 83.1385 45.987 80.8705 43.527C78.6025 41.066 74.0215 37.691 70.6905 36.027C65.6125 33.489 63.4555 33 57.3515 33C53.3475 33 49.8245 33.398 49.5245 33.884C48.6465 35.304 57.5985 42.926 63.2575 45.577C66.1145 46.916 70.1495 48.292 72.2245 48.637C78.4645 49.672 77.3965 50.695 68.1955 52.496C56.6645 54.752 34.1795 55.584 25.3265 54.082C8.1595 51.17 -2.1055 40.254 2.3335 29.63C6.3525 20.012 20.3525 20.598 20.3525 30.384C20.3525 36.279 15.4035 39.923 10.2025 37.859L7.4525 36.768L10.8855 35.567C15.2295 34.048 16.8195 31.749 15.0225 29.584C13.0815 27.246 10.3705 27.653 8.0255 30.635C5.3065 34.09 5.41049 35.428 8.58749 37.927C12.2385 40.799 15.5785 40.527 19.0295 37.077C22.5895 33.516 22.9435 28.53 19.9095 24.672C15.6985 19.319 5.9415 20.688 1.9785 27.19C-3.5175 36.204 2.86549 48.124 15.8205 53.039C21.6655 55.257 38.4145 57.402 44.9695 56.772C47.7105 56.509 49.9525 56.412 49.9525 56.558C49.9525 56.703 47.9055 57.813 45.4025 59.024C39.6605 61.804 31.8135 69.393 29.0205 74.866C26.5015 79.804 26.9475 81.149 30.7445 80.06C41.3285 77.024 51.4735 67.493 54.2825 57.945C54.6065 56.843 58.0535 55.738 66.0965 54.157C75.4405 52.319 102.627 44.921 109.66 42.302C110.646 41.935 108.752 44.562 105.452 48.14C98.2505 55.948 90.5545 68.337 92.6045 68.825C95.3935 69.489 101.034 66.732 105.973 62.291C111.365 57.443 115.143 51.103 116.977 43.818L118.092 39.391L131.271 35.701C146.027 31.57 168.952 27.175 168.952 28.478C168.952 28.636 166.364 30.025 163.202 31.565C159.349 33.441 154.4 37.409 148.202 43.592C143.114 48.668 138.952 53.311 138.952 53.91C138.952 57.31 154.76 53.227 163.145 47.661C170.3 42.911 179.952 32.77 179.952 30.002C179.952 27.979 180.282 27.894 185.702 28.52C194.283 29.512 202.166 31.478 214.952 35.818C225.885 39.528 226.439 39.848 226.173 42.309C225.845 45.341 228.231 47 232.921 47C235.675 47 235.907 47.216 234.989 48.931C234.208 50.389 234.343 51.247 235.536 52.44C236.404 53.308 237.56 53.742 238.107 53.404C238.653 53.067 240.15 53.776 241.432 54.981C242.912 56.371 244.801 57.082 246.607 56.927C248.172 56.793 250.64 57.255 252.093 57.953C253.92 58.831 255.281 58.915 256.509 58.228C257.485 57.682 260.005 57.466 262.108 57.748C264.564 58.077 266.53 57.767 267.602 56.88C268.52 56.121 270.437 55.5 271.862 55.5C273.952 55.5 274.406 55.066 274.214 53.25C274.016 51.385 274.466 51 276.841 51C281.049 51 282.664 48.612 279.81 46.613C278.579 45.751 277.771 44.887 278.012 44.692C278.847 44.019 289.464 41.147 293.452 40.515C295.652 40.167 303.077 38.126 309.952 35.979C326.448 30.829 332.798 29.23 339.986 28.417C345.65 27.776 345.952 27.852 345.952 29.914C345.952 32.622 353.551 40.91 361.297 46.648C369.599 52.798 386.952 57.657 386.952 53.832C386.952 53.189 382.781 48.539 377.683 43.499C371.052 36.943 366.57 33.441 361.933 31.193C354.33 27.507 355.636 27.236 369.952 29.531C379.129 31.002 387.129 32.936 401.085 37.056C407.69 39.007 407.723 39.035 408.883 43.642C410.53 50.183 413.577 55.882 417.808 60.336C421.877 64.621 430.174 69.282 432.889 68.809C435.628 68.331 427.964 56.035 419.696 47.641C415.981 43.868 413.705 41.075 414.64 41.434C421.927 44.23 450.599 52.246 459.366 53.938C471.526 56.284 471.952 56.45 471.952 58.822C471.952 61.639 478.75 70.84 483.246 74.108C488.283 77.77 493.328 80 496.574 80C499.467 80 499.47 79.937 496.846 74.792C494.087 69.385 486.215 61.79 480.502 59.024C477.999 57.813 475.952 56.669 475.952 56.483C475.952 56.297 478.314 56.386 481.202 56.681C488.075 57.384 503.804 55.428 509.897 53.113C523.044 48.118 529.46 36.264 523.927 27.19C519.964 20.688 510.207 19.319 505.996 24.672C502.962 28.53 503.315 33.516 506.875 37.077C510.326 40.527 513.667 40.799 517.318 37.927C520.495 35.428 520.599 34.09 517.88 30.635C515.535 27.653 512.823 27.246 510.882 29.584C509.098 31.734 510.675 34.06 514.875 35.474L518.166 36.582L515.564 37.768C510.617 40.021 505.552 36.287 505.552 30.384C505.552 23.673 513.327 20.394 519.559 24.478C528.487 30.328 524.752 44.573 512.776 50.349C504.992 54.103 495.829 55.33 480.078 54.727C467.073 54.229 449.952 51.534 449.952 49.985C449.952 49.584 451.789 48.962 454.035 48.603C456.28 48.244 460.371 46.808 463.125 45.412C468.792 42.541 477.207 35.222 476.38 33.884C476.08 33.398 472.557 33 468.553 33C462.449 33 460.292 33.489 455.214 36.027C451.883 37.691 447.264 41.107 444.95 43.618L440.743 48.182L416.598 40.631C403.318 36.478 390.877 32.688 388.952 32.209C385.689 31.396 386.022 31.253 393.878 30.088C398.513 29.401 405.175 27.797 408.683 26.524C414.689 24.344 427.407 17.241 432.952 12.97L435.452 11.044L423.452 11.04C403.749 11.032 390.576 15.138 380.106 24.551L375.042 29.104L369.059 28.019C362.619 26.852 340.941 26.527 336.29 27.529C334.457 27.924 335.624 26.937 339.585 24.742C348.546 19.775 357.707 13.007 364.478 6.35199L370.431 0.5L363.942 0.171997C350.531 -0.506003 337.419 4.82499 327.305 15.067C322.392 20.043 321.452 21.561 321.452 24.526C321.452 27.47 320.871 28.426 317.958 30.278L314.464 32.5L316.754 29.28C318.014 27.509 319.474 25.795 319.999 25.471C320.523 25.147 320.952 24.356 320.952 23.712C320.952 23.069 318.365 25.328 315.202 28.733C310.199 34.119 308.599 35.176 302.883 36.873C299.27 37.946 294.207 39.139 291.633 39.525C287.762 40.106 286.952 39.958 286.952 38.67C286.952 37.814 286.042 36.476 284.93 35.697C283.723 34.852 283.147 33.655 283.502 32.731C284.98 28.879 275.53 29.44 269.451 33.565C266.36 35.663 265.494 35.865 264.197 34.789C263.344 34.08 259.452 33.178 255.549 32.785C251.645 32.392 245.515 31.776 241.924 31.416C236.522 30.876 235.156 31.05 234.015 32.424C232.976 33.676 232.92 34.368 233.788 35.236C234.655 36.103 234.197 36.698 231.924 37.654C229.349 38.736 227.973 38.632 222.492 36.939C216.918 35.218 215.345 34.139 210.518 28.729C207.462 25.303 204.959 23.036 204.956 23.691C204.954 24.346 205.382 25.147 205.906 25.471C206.431 25.795 207.89 27.509 209.15 29.28L211.441 32.5L207.946 30.278C205.033 28.426 204.452 27.47 204.452 24.526C204.452 21.563 203.515 20.044 198.63 15.098C188.742 5.08399 176.859 0.0339934 163.13 0.0119934L155.807 0L157.939 2.75ZM168.145 2.75C171.439 6.586 170.931 7.02299 166.053 4.55099C163.247 3.12999 160.952 1.749 160.952 1.483C160.952 0.185002 166.831 1.22 168.145 2.75ZM178.68 6.86401C180.48 9.22401 181.952 11.58 181.952 12.098C181.952 13.774 174.181 9.13201 172.201 6.27301C168.771 1.31901 168.77 1.21499 172.201 1.91699C174.371 2.36099 176.463 3.95801 178.68 6.86401ZM356.347 2.25C353.741 6.757 351.291 9.296 347.868 11.043C343.088 13.481 342.942 12.48 347.252 6.82901C349.342 4.08901 351.634 2.26999 353.502 1.86899C355.124 1.52099 356.591 1.18301 356.761 1.11801C356.931 1.05301 356.745 1.563 356.347 2.25ZM364.952 1.483C364.952 1.749 362.657 3.12999 359.851 4.55099C354.973 7.02299 354.465 6.586 357.759 2.75C359.073 1.22 364.952 0.185002 364.952 1.483ZM172.626 9.60901C179.131 13.244 188.216 18.668 192.816 21.661C197.417 24.655 201.387 26.9 201.637 26.65C201.887 26.4 200.822 25.442 199.271 24.521C197.378 23.397 195.592 20.753 193.833 16.471L191.212 10.096L194.617 12.694C199.397 16.34 201.987 20.322 202.372 24.619C202.59 27.043 203.515 28.937 205.077 30.156C207.026 31.677 206.23 31.557 200.639 29.489C191.808 26.223 185.001 22.745 176.952 17.384C170.532 13.108 158.822 3.127 160.126 3.043C160.496 3.019 166.121 5.97401 172.626 9.60901ZM362.452 6.646C350.549 17.248 336.37 25.938 324.351 29.998C318.838 31.86 318.607 31.869 320.827 30.147C322.391 28.932 323.314 27.047 323.532 24.619C323.917 20.322 326.507 16.34 331.287 12.694L334.693 10.096L332.075 16.422C330.275 20.772 328.556 23.265 326.569 24.405C324.981 25.317 323.916 26.297 324.202 26.583C324.489 26.87 328.487 24.654 333.088 21.66C342.916 15.263 364.012 3.17999 365.452 3.12299C366.002 3.10099 364.652 4.687 362.452 6.646ZM183.949 5.99799C187.721 7.92299 191.842 13.474 193.417 18.754C194.08 20.976 194.025 20.969 189.587 18.254C186.723 16.502 184.457 14.133 183.363 11.744C182.417 9.67899 181.038 7.48601 180.298 6.87201C178.958 5.76001 178.464 4 179.492 4C179.789 4 181.794 4.89899 183.949 5.99799ZM346.952 4.94101C346.952 5.45901 346.496 6.164 345.938 6.509C345.38 6.854 344.033 8.88201 342.944 11.015C341.855 13.149 338.89 16.323 336.353 18.068C331.869 21.153 331.76 21.175 332.45 18.871C334.004 13.679 338.165 7.936 341.742 6.047C345.966 3.817 346.952 3.60801 346.952 4.94101ZM110.952 15.702C120.362 18.385 144.652 27.705 145.404 28.92C146.109 30.061 132.421 29.056 125.223 27.438C121.797 26.668 116.172 24.753 112.723 23.182C106.746 20.459 94.9525 13.392 94.9525 12.532C94.9525 11.785 102.366 13.254 110.952 15.702ZM113.005 13.563C114.147 14.939 113.952 15.041 111.378 14.414C105.342 12.946 104.2 12.131 108.081 12.063C110.216 12.026 112.242 12.643 113.005 13.563ZM419.452 12.915C418.352 13.348 416.102 14.001 414.452 14.367C411.625 14.992 411.564 14.943 413.393 13.515C414.461 12.682 416.711 12.029 418.393 12.063C420.936 12.116 421.115 12.26 419.452 12.915ZM428.452 14.547C423.603 18.548 407.98 25.834 400.952 27.372C392.285 29.268 379.189 30.362 380.474 29.082C383.019 26.546 408.7 17.046 421.452 13.922C431.062 11.569 431.964 11.649 428.452 14.547ZM120.637 14.122C122.185 14.739 124.69 15.362 126.201 15.506C127.712 15.649 130.187 16.595 131.701 17.606C133.215 18.617 134.828 19.332 135.288 19.194C136.513 18.826 142.11 22.475 144.941 25.488L147.395 28.101L142.986 26.126C140.561 25.04 137.719 23.105 136.671 21.826C135.334 20.193 134.934 20.021 135.329 21.25C135.637 22.212 135.734 23 135.544 23C133.892 23 127.253 19.401 125.717 17.673C124.322 16.104 123.929 15.963 124.305 17.168C124.785 18.703 124.481 18.718 120.471 17.352C118.075 16.535 115.869 15.222 115.566 14.434C114.901 12.702 116.784 12.586 120.637 14.122ZM409.603 14.834C408.69 15.842 406.405 17.139 404.524 17.717C401.542 18.632 401.17 18.557 401.612 17.133C401.988 15.923 401.645 16.029 400.286 17.545C399.277 18.669 396.558 20.346 394.243 21.27C390.27 22.857 390.064 22.854 390.576 21.226C390.948 20.044 390.442 20.269 388.973 21.938C387.792 23.28 384.955 25.215 382.668 26.239L378.509 28.101L380.963 25.488C383.88 22.383 389.838 18.552 390.586 19.301C390.877 19.591 392.745 18.723 394.739 17.37C396.732 16.017 399.283 14.997 400.407 15.102C401.532 15.207 403.577 14.805 404.952 14.21C406.327 13.614 408.309 13.098 409.357 13.063C411.141 13.004 411.157 13.116 409.603 14.834ZM177.84 32.194C177.346 33.126 176.494 34.165 175.947 34.503C174.538 35.374 174.708 32.644 176.152 31.2C179.054 28.298 175.324 30.475 167.708 36.127C163.167 39.497 155.955 44.288 151.682 46.774C147.408 49.259 144.104 51.485 144.339 51.72C144.574 51.955 146.158 51.428 147.859 50.548C150.869 48.992 151.683 49.36 150.188 51.601C149.071 53.274 144.496 53.807 143.197 52.416C141.517 50.617 156.819 36.191 164.279 32.541C173.922 27.823 180.245 27.661 177.84 32.194ZM360.884 32.238C368.971 36.094 384.523 50.473 382.708 52.416C381.409 53.807 376.833 53.274 375.717 51.601C374.222 49.36 375.035 48.992 378.045 50.548C379.746 51.428 381.33 51.955 381.565 51.72C381.8 51.485 378.496 49.259 374.222 46.774C369.949 44.288 362.737 39.497 358.196 36.127C350.58 30.475 346.85 28.298 349.752 31.2C350.412 31.86 350.952 33.081 350.952 33.914C350.952 35.23 350.742 35.218 349.349 33.826C348.325 32.802 347.989 31.46 348.417 30.11C349.255 27.471 351.795 27.904 360.884 32.238ZM13.4525 31.583C13.4525 32.931 12.6355 33.594 10.7025 33.816C7.6025 34.173 7.1715 32.923 9.5685 30.527C11.5715 28.524 13.4525 29.036 13.4525 31.583ZM516.382 30.571C518.612 32.802 518.33 34 515.575 34C512.495 34 510.546 31.807 512.177 30.176C513.734 28.619 514.502 28.691 516.382 30.571ZM280.755 31.857C281.471 32.311 281.921 33.173 281.755 33.771C281.588 34.369 282.352 35.539 283.452 36.371C286.283 38.511 284.418 41.132 278.935 42.72C274.227 44.083 266.949 43.416 266.957 41.622C266.96 41.005 268.647 39.734 270.707 38.799L274.452 37.098L270.452 37.663L266.452 38.227L268.543 36.051C269.693 34.853 272.393 33.247 274.543 32.481C279.232 30.81 279.121 30.821 280.755 31.857ZM248.256 33.657C251.489 34.574 248.09 37.235 244.258 36.788C242.44 36.575 240.952 36.761 240.952 37.201C240.952 37.64 242.286 38 243.917 38C245.886 38 247.252 38.691 247.984 40.057C249.057 42.063 248.927 42.096 242.769 41.402C239.295 41.01 235.327 40.367 233.952 39.974L231.452 39.259L234.202 38.521C237.03 37.762 237.711 36.587 235.952 35.5C231.526 32.764 240.412 31.433 248.256 33.657ZM58.9525 35C58.9525 36.174 58.1835 36.174 55.4525 35C53.6805 34.238 53.7655 34.133 56.2025 34.07C57.7155 34.032 58.9525 34.45 58.9525 35ZM66.0355 36.083C67.1815 37.229 67.9295 38.356 67.6975 38.588C66.8845 39.402 61.1065 36.844 60.5645 35.43C59.7105 33.206 63.6255 33.673 66.0355 36.083ZM173.952 35.932C173.952 36.994 172.602 38.825 170.952 40L167.952 42.136V39.978C167.952 38.011 171.394 34.113 173.202 34.033C173.614 34.015 173.952 34.869 173.952 35.932ZM263.048 35.716C267.901 38.583 266.854 40.699 260.2 41.471C250.821 42.56 245.838 39.294 251.175 35.557C254.1 33.507 259.43 33.579 263.048 35.716ZM355.776 36.003C357.191 37.183 357.973 38.775 357.776 40.077C357.457 42.183 357.413 42.177 354.702 39.655C352.153 37.282 350.969 33.956 352.702 34.033C353.115 34.052 354.498 34.938 355.776 36.003ZM465.34 35.43C464.912 36.546 460.096 39 458.334 39C457.143 39 459.634 35.669 461.341 34.98C464.543 33.686 465.949 33.844 465.34 35.43ZM470.452 35C467.721 36.174 466.952 36.174 466.952 35C466.952 34.45 468.189 34.032 469.702 34.07C472.139 34.133 472.224 34.238 470.452 35ZM60.0455 37.862C66.2765 40.007 82.3615 47.924 81.7445 48.541C81.5165 48.77 78.7075 48.53 75.5035 48.008C69.0355 46.956 59.0565 42.478 54.4525 38.562C50.7855 35.442 52.4245 35.237 60.0455 37.862ZM72.5425 38.671C75.5365 41.446 74.6465 42.977 71.1325 41.097C69.2205 40.073 67.4365 36 68.9005 36C69.3185 36 70.9575 37.202 72.5425 38.671ZM457.231 38.04C456.655 40.243 450.952 43.819 450.952 41.978C450.952 40.79 455.802 36 457.004 36C457.423 36 457.525 36.918 457.231 38.04ZM471.452 38.562C466.848 42.478 456.869 46.956 450.401 48.008C447.197 48.53 444.388 48.77 444.16 48.541C443.495 47.876 459.929 39.844 465.952 37.891C473.674 35.387 474.995 35.548 471.452 38.562ZM166.952 40.929C166.952 43.03 164.966 45.388 161.74 47.114C159.842 48.13 159.736 48.002 160.37 45.476C161.007 42.936 164.47 39.11 166.202 39.033C166.614 39.015 166.952 39.868 166.952 40.929ZM362.65 40.901C363.859 41.91 365.157 43.969 365.535 45.476C366.169 48.002 366.063 48.13 364.165 47.114C360.939 45.388 358.952 43.03 358.952 40.929C358.952 38.545 359.82 38.539 362.65 40.901ZM243.952 43.043C246.335 43.123 246.353 43.167 244.334 43.982C240.886 45.375 233.169 46.271 230.465 45.593C228.196 45.023 227.025 42.26 228.45 40.836C228.723 40.562 231.761 40.928 235.2 41.648C238.638 42.369 242.577 42.996 243.952 43.043ZM79.0285 43.704L81.4525 46.409L79.0075 44.869C77.6625 44.022 76.3875 42.805 76.1735 42.164C75.5615 40.327 76.4115 40.785 79.0285 43.704ZM449.496 42.928C449.136 43.512 447.853 44.503 446.646 45.13C444.554 46.218 444.565 46.149 446.873 43.64C449.176 41.136 450.892 40.67 449.496 42.928ZM113.247 45.004C112.201 46.656 108.669 51.262 105.398 55.239C102.128 59.217 99.5805 62.862 99.7375 63.341C100.111 64.477 97.9985 67 96.6755 67C96.1075 67 96.4575 66.1 97.4525 65C99.4115 62.836 98.2015 62.199 96.0285 64.25C93.6675 66.478 99.3405 57.078 103.204 52.361C106.569 48.252 113.498 42 114.688 42C114.941 42 114.293 43.352 113.247 45.004ZM272.076 45.023C279.943 46.516 282.616 50 275.893 50C273.423 50 272.952 50.4 272.952 52.5C272.952 53.875 272.551 55 272.06 55C271.57 55 268.87 52.933 266.06 50.407C260.342 45.266 259.016 45.731 264.43 50.978C266.857 53.331 267.612 54.705 266.929 55.527C265.796 56.893 252.176 57.169 251.356 55.843C251.063 55.369 252.201 53.308 253.887 51.263C258.661 45.472 257.489 45.187 252.36 50.892C247.383 56.428 245.254 57.096 242.452 54C241.457 52.9 239.555 52 238.225 52C236.478 52 235.897 51.523 236.136 50.284C236.506 48.36 238.986 47.025 246.795 44.547C252.534 42.726 254.493 43.124 251.38 45.479C250.32 46.28 249.946 46.951 250.548 46.968C251.15 46.986 252.457 46.1 253.452 45C255.233 43.032 258.608 42.129 257.504 43.916C257.192 44.42 257.448 46.107 258.071 47.666L259.204 50.5L260.035 47.586C260.493 45.983 260.586 44.218 260.244 43.663C259.901 43.108 260.695 43.407 262.009 44.327C263.322 45.247 265.084 45.97 265.925 45.932C266.906 45.889 266.648 45.477 265.202 44.78C263.964 44.183 262.952 43.297 262.952 42.812C262.952 42.327 263.84 42.405 264.925 42.986C266.01 43.566 269.228 44.483 272.076 45.023ZM420.591 50.407C425.68 56.011 433.5 67.67 429.876 64.25C427.703 62.199 426.493 62.836 428.452 65C429.447 66.1 429.797 67 429.229 67C427.906 67 425.794 64.477 426.167 63.341C426.324 62.862 423.776 59.217 420.506 55.239C417.235 51.262 413.666 46.596 412.573 44.871L410.588 41.735L412.659 42.843C413.799 43.453 417.368 46.857 420.591 50.407ZM158.579 47.354C157.916 49.997 151.938 53.021 151.967 50.698C151.989 49.016 153.067 47.648 155.893 45.715C158.806 43.722 159.4 44.084 158.579 47.354ZM372.374 47.565C373.242 48.433 373.952 49.775 373.952 50.547C373.952 51.662 373.392 51.737 371.222 50.913C368.15 49.744 366.99 48.328 366.967 45.715C366.955 44.263 367.31 44.121 368.874 44.958C369.931 45.524 371.506 46.697 372.374 47.565ZM114.074 48.675C113.203 50.174 113.007 50.217 112.982 48.917C112.95 47.233 114.002 45.716 114.71 46.425C114.944 46.659 114.658 47.671 114.074 48.675ZM412.937 48.809C412.923 50.266 412.787 50.293 411.952 49C410.686 47.042 410.686 45.718 411.952 46.5C412.502 46.84 412.945 47.879 412.937 48.809ZM111.952 52.066C111.952 52.652 111.455 54.063 110.846 55.201C110.009 56.763 109.541 56.953 108.936 55.975C108.496 55.262 108.653 53.851 109.285 52.839C110.552 50.811 111.952 50.404 111.952 52.066ZM416.62 52.839C417.252 53.851 417.408 55.262 416.968 55.975C416.363 56.953 415.896 56.763 415.059 55.201C412.968 51.292 414.348 49.202 416.62 52.839ZM107.232 58.25C106.7 60.95 101.952 64.934 101.952 62.682C101.952 61.07 105.697 56 106.887 56C107.321 56 107.476 57.012 107.232 58.25ZM421.638 58.174C422.91 59.37 423.952 61.191 423.952 62.221C423.952 64.03 423.87 64.033 421.534 62.297C420.204 61.309 418.917 59.488 418.673 58.25C418.119 55.439 418.709 55.423 421.638 58.174ZM44.1755 64.979C35.5975 73.107 28.9505 78.504 28.9575 77.334C28.9605 76.875 30.6555 74.25 32.7245 71.5C36.2865 66.766 47.7935 57.951 50.2935 58.042C50.9305 58.065 48.1785 61.187 44.1755 64.979ZM483.095 62.25C488.658 65.989 496.933 75 496.947 77.334C496.954 78.504 490.307 73.107 481.729 64.979C477.726 61.187 474.974 58.065 475.611 58.042C476.249 58.019 479.617 59.913 483.095 62.25ZM51.9065 61.086C51.2925 62.233 50.5375 62.919 50.2285 62.61C49.9205 62.301 50.2365 61.362 50.9325 60.524C52.7305 58.358 53.2165 58.638 51.9065 61.086ZM475.723 62.562C475.388 62.897 474.575 62.12 473.916 60.836C472.771 58.603 472.798 58.576 474.526 60.226C475.52 61.176 476.059 62.227 475.723 62.562ZM47.3315 67.782C45.7785 70.114 45.4685 70.241 45.1495 68.676C44.9445 67.672 45.5925 65.95 46.5895 64.849C49.0545 62.125 49.6165 64.349 47.3315 67.782ZM480.919 68.405C480.886 70.445 480.834 70.438 478.919 68.139C477.837 66.841 476.952 65.084 476.952 64.234C476.952 62.931 477.264 62.972 478.952 64.5C480.052 65.495 480.937 67.253 480.919 68.405ZM41.2825 73.514C39.7245 74.665 39.4025 74.642 39.1145 73.358C38.9295 72.529 39.6045 70.932 40.6145 69.809L42.4525 67.766L42.7825 69.964C42.9745 71.239 42.3445 72.73 41.2825 73.514ZM486.952 73.163C486.952 74.767 486.682 74.848 484.952 73.768C483.849 73.079 482.952 71.436 482.952 70.104C482.952 67.753 483.004 67.738 484.952 69.5C486.052 70.495 486.952 72.144 486.952 73.163ZM35.5095 76.582C32.5455 78.749 31.1275 78.204 33.8445 75.942C35.1595 74.846 36.5085 74.223 36.8425 74.557C37.1765 74.89 36.5765 75.802 35.5095 76.582ZM493.56 77.175C494.05 77.967 493.721 78.125 492.534 77.67C491.574 77.301 490.376 77 489.871 77C489.366 77 488.952 76.309 488.952 75.465C488.952 74.254 489.363 74.15 490.896 74.97C491.966 75.543 493.164 76.535 493.56 77.175Z" fill="black"/>
</svg>
